<?xml version="1.0" encoding="UTF-8" standalone="no"?>
<svg
   xmlns:dc="http://purl.org/dc/elements/1.1/"
   xmlns:cc="http://creativecommons.org/ns#"
   xmlns:rdf="http://www.w3.org/1999/02/22-rdf-syntax-ns#"
   xmlns:svg="http://www.w3.org/2000/svg"
   xmlns="http://www.w3.org/2000/svg"
   xmlns:sodipodi="http://sodipodi.sourceforge.net/DTD/sodipodi-0.dtd"
   xmlns:inkscape="http://www.inkscape.org/namespaces/inkscape"
   width="200"
   viewBox="0 0 200 200"
   version="1.1"
   height="200"
   id="svg3730"
   sodipodi:docname="apple_logo_200px.svg"
   inkscape:version="0.92.1 r">
  <metadata
     id="metadata3736">
    <rdf:RDF>
      <cc:Work
         rdf:about="">
        <dc:format>image/svg+xml</dc:format>
        <dc:type
           rdf:resource="http://purl.org/dc/dcmitype/StillImage" />
        <dc:title></dc:title>
      </cc:Work>
    </rdf:RDF>
  </metadata>
  <defs
     id="defs3734" />
  <sodipodi:namedview
     pagecolor="#ffffff"
     bordercolor="#666666"
     borderopacity="1"
     objecttolerance="10"
     gridtolerance="10"
     guidetolerance="10"
     inkscape:pageopacity="0"
     inkscape:pageshadow="2"
     inkscape:window-width="1920"
     inkscape:window-height="1013"
     id="namedview3732"
     showgrid="false"
     inkscape:zoom="4.7823529"
     inkscape:cx="76.635916"
     inkscape:cy="93.364084"
     inkscape:window-x="0"
     inkscape:window-y="33"
     inkscape:window-maximized="1"
     inkscape:current-layer="svg3730" />
  <path
     d="m 179.57479,154.21034 c -3.04692,6.74851 -6.65349,12.96048 -10.83211,18.67168 -5.69588,7.78582 -10.35953,13.1751 -13.95365,16.16781 -5.57152,4.91235 -11.54099,7.42813 -17.93331,7.57121 -4.58904,0 -10.12323,-1.25193 -16.56529,-3.79157 -6.46321,-2.52771 -12.40284,-3.77964 -17.83381,-3.77964 -5.695875,0 -11.804643,1.25193 -18.338733,3.77964 -6.544037,2.53964 -11.815832,3.86311 -15.846473,3.99426 -6.129904,0.25039 -12.239912,-2.33694 -18.338727,-7.7739 -3.892595,-3.25502 -8.761448,-8.83506 -14.594126,-16.74012 -6.257999,-8.4416 -11.402942,-18.23052 -15.433582,-29.3906 -4.316678,-12.05432 -6.480612,-23.7271 -6.480612,-35.02787 0,-12.944987 2.917581,-24.109838 8.761449,-33.465945 4.592765,-7.515171 10.702773,-13.443368 18.349922,-17.795323 7.647147,-4.351956 15.909896,-6.569664 24.808147,-6.71155 4.868853,0 11.253705,1.443895 19.188135,4.281609 7.912044,2.847251 12.992317,4.291147 15.219675,4.291147 1.665235,0 7.308875,-1.688321 16.876205,-5.05423 9.0475,-3.121485 16.68345,-4.413955 22.93896,-3.904837 16.95083,1.311549 29.68571,7.717865 38.1549,19.259489 -15.15998,8.806449 -22.65913,21.140964 -22.50989,36.9642 0.13679,12.32497 4.80045,22.58127 13.96607,30.7248 4.15377,3.77964 8.79255,6.70081 13.95366,8.77544 -1.11927,3.11195 -2.30074,6.09274 -3.55681,8.9543 z M 140.69857,7.5434944 c 0,9.6602676 -3.68117,18.6800216 -11.01865,27.0286226 -8.85472,9.924842 -19.56496,15.659884 -31.179323,14.754917 -0.147992,-1.158932 -0.233804,-2.378672 -0.233804,-3.660413 0,-9.273837 4.210957,-19.198679 11.688977,-27.313585 3.73341,-4.108723 8.48163,-7.525067 14.23969,-10.2503447 5.74562,-2.6846199 11.18033,-4.1692923 16.2917,-4.4234941 0.14923,1.2913979 0.21141,2.5829151 0.21141,3.8641779 z"
     id="path3728"
     inkscape:connector-curvature="0"
     style="stroke-width:1.21770835" />
</svg>
